# xmcd CD database file
#
# Track frame offsets:
#	150
#	5522
#	27165
#	42135
#	62880
#	84897
#	105717
#	126020
#	145770
#	163097
#	173805
#
# Disc length: 2595 seconds
#
# Revision: 0
# Processed by: cddbd v1.5.1PL0 Copyright (c) Steve Scherf et al.
# Submitted via: CDex 1.51
#
DISCID=850a210b
DTITLE=DaTURA - DaTURA
DYEAR=2002
DGENRE=General Alternative
TTITLE0=Introduction
TTITLE1=Loop In The Super Low
TTITLE2=Push And Shove
TTITLE3=Innocent World
TTITLE4=Through The Valley Of A Whore
TTITLE5=Don't You Wish You
TTITLE6=Call My Name
TTITLE7=Spiral
TTITLE8=The First Time
TTITLE9=D
TTITLE10=Espirit Complex
EXTD=YEAR: 2002
EXTT0=
EXTT1=
EXTT2=
EXTT3=
EXTT4=
EXTT5=
EXTT6=
EXTT7=
EXTT8=
EXTT9=
EXTT10=
PLAYORDER=
